<?xml version="1.0" encoding="UTF-8" standalone="no"?>
<svg width="849px" height="458px" viewBox="0 0 849 458" version="1.1" xmlns="http://www.w3.org/2000/svg" xmlns:xlink="http://www.w3.org/1999/xlink" xmlns:sketch="http://www.bohemiancoding.com/sketch/ns">
    <!-- Generator: Sketch 3.0.1 (7597) - http://www.bohemiancoding.com/sketch -->
    <title>Comparison of orbits</title>
    <description>Created with Sketch.</description>
    <defs>
        <radialGradient cx="30.5996388%" cy="31.5830277%" fx="30.5996388%" fy="31.5830277%" r="100%" id="radialGradient-1">
            <stop stop-color="#FFFFFF" offset="0%"></stop>
            <stop stop-color="#000000" offset="100%"></stop>
        </radialGradient>
    </defs>
    <g id="Page-1" stroke="none" stroke-width="1" fill="none" fill-rule="evenodd" sketch:type="MSPage">
        <g id="Desktop" sketch:type="MSArtboardGroup" transform="translate(-91.000000, -7163.000000)">
            <g id="Comparison-of-orbits" sketch:type="MSLayerGroup" transform="translate(94.000000, 7166.000000)">
                <path d="M421.5,289 C456.570082,289 485,260.570082 485,225.5 C485,190.429918 456.570082,162 421.5,162 C386.429918,162 358,190.429918 358,225.5 C358,260.570082 386.429918,289 421.5,289 Z" id="Earth" stroke="#4990E2" stroke-width="5" fill-opacity="0.1" fill="url(#radialGradient-1)" sketch:type="MSShapeGroup"></path>
                <ellipse id="Oval-9" stroke="#C3EAF5" stroke-width="3" sketch:type="MSShapeGroup" cx="422" cy="226" rx="267" ry="143"></ellipse>
                <ellipse id="Oval-10" stroke="#C3EAF5" stroke-width="3" sketch:type="MSShapeGroup" cx="421.5" cy="226" rx="421.5" ry="226"></ellipse>
                <path d="M482.97168,207.402344 C489,210.828125 492,219.492358 492,226 C492,248.042501 460.44021,265 422,265 C383.55979,265 352,248.042501 352,226 C352,218.729705 353.911621,209.828495 360.763672,205.217285 C360.763672,205.217285 360.133789,206.939453 359.314453,209.828495 C356.254395,214.226562 355,219.482206 355,226 C355,245.882251 384.996922,262 422,262 C459.003078,262 489,245.882251 489,226 C489,220.184361 488.6223,216.496101 484.064682,211.633789 C484.064682,209.828495 482.97168,207.402344 482.97168,207.402344 Z" id="Oval-8" fill="#C3EAF5" sketch:type="MSShapeGroup"></path>
            </g>
        </g>
    </g>
</svg>